<?xml version="1.0" encoding="iso-8859-1"?>
<!-- Generator: Adobe Illustrator 17.1.0, SVG Export Plug-In . SVG Version: 6.00 Build 0)  -->
<!DOCTYPE svg PUBLIC "-//W3C//DTD SVG 1.1//EN" "http://www.w3.org/Graphics/SVG/1.1/DTD/svg11.dtd">
<svg version="1.1" id="Capa_1" xmlns="http://www.w3.org/2000/svg" xmlns:xlink="http://www.w3.org/1999/xlink" x="0px" y="0px"
	 viewBox="0 0 404.611 404.611" style="enable-background:new 0 0 404.611 404.611;" xml:space="preserve">
<g>
	<path d="M225.641,325.345c-6.628,3.758-14.28,5.91-22.427,5.91c-8.232,0-15.955-2.198-22.63-6.027
		c-0.701-0.402-1.761,0.448-1.545,1.278c2.813,10.792,12.625,18.757,24.297,18.757c11.58,0,21.325-7.841,24.225-18.502
		C227.823,325.795,226.504,324.856,225.641,325.345z"/>
	<path d="M202.173,235.838c-24.448,0-44.338,19.89-44.338,44.338s19.89,44.338,44.338,44.338c24.447,0,44.337-19.89,44.337-44.338
		S226.621,235.838,202.173,235.838z"/>
	<path d="M398.487,247.796l-59.032-53.771c-5.8-5.282-14.574-15.128-19.162-21.499l-62.578-86.935
		c-0.566-0.787-1.177-1.511-1.822-2.176c-1.934-2.632-4.498-4.833-7.588-6.313l-30.443-14.59c-4.259-2.041-9.83-3.165-15.688-3.165
		c-5.857,0-11.429,1.124-15.688,3.165l-30.444,14.59c-3.542,1.697-6.383,4.349-8.385,7.505c-0.26,0.317-0.516,0.643-0.761,0.983
		l-62.578,86.936c-4.586,6.371-13.361,16.217-19.161,21.499L6.123,247.796c-4.023,3.665-6.197,8.557-6.121,13.773
		s2.392,10.043,6.522,13.59l1.753,1.505c3.783,3.249,8.717,5.039,13.892,5.039c5.633,0,11.089-2.174,14.969-5.964l54.941-53.669
		c5.936-5.799,15.51-15.311,21.341-21.203l46.402-46.886c-0.045,0.326-0.089,0.655-0.143,0.966l-6.812,38.611l-41.447,38.464
		c-4.895,4.542-9.215,13.31-9.836,19.96l-7.158,76.79c-0.39,4.185,0.877,8.222,3.477,11.074c2.347,2.577,5.554,3.996,9.03,3.996
		c0.172,0,0.345-0.004,0.519-0.011c7.187-0.293,13.855-6.604,15.183-14.368l11.296-66.081c0.737-4.314,4.28-10.619,7.582-13.492
		l24.614-21.244c0.506,0.039,1.012,0.254,1.526,0.254h69.04c0.897,0,1.774-0.258,2.641-0.379l24.757,21.458
		c3.302,2.872,6.845,9.133,7.582,13.447l11.297,66.059c1.327,7.765,7.996,14.064,15.183,14.357c0.174,0.007,0.347,0.006,0.519,0.006
		c3.476,0,6.683-1.422,9.03-3.999c2.6-2.853,3.867-6.892,3.477-11.076l-7.158-76.791c-0.62-6.649-4.94-15.417-9.835-19.96
		l-41.634-38.636c-0.41-0.381-0.844-0.731-1.291-1.064l-6.594-37.375c-0.072-0.405-0.132-0.829-0.187-1.262l46.71,47.205
		c5.817,5.88,15.392,15.416,21.341,21.229l54.94,53.719c3.88,3.789,9.336,6.063,14.97,6.063c0.001,0,0.001,0,0.002,0
		c5.174,0,10.107-1.889,13.89-5.137l1.755-1.605c4.129-3.546,6.445-8.372,6.521-13.589S402.51,251.461,398.487,247.796z
		 M246.423,205.033c1.352,7.662-3.909,13.867-11.69,13.867h-65.12c-7.782,0-13.042-6.205-11.69-13.867l8.813-49.923
		c0.012-0.067,0.02-0.142,0.031-0.21h70.806c0.013,0.079,0.022,0.164,0.036,0.242L246.423,205.033z M250.865,104.284l-10.174,23.906
		c-0.23,0.54-0.447,1.117-0.658,1.71h-75.717c-0.212-0.599-0.431-1.181-0.663-1.727l-10.174-23.897
		c-3.047-7.16,0.201-15.767,7.219-19.13l28.715-13.76c7.017-3.363,18.5-3.362,25.518,0.001l28.715,13.762
		C250.664,88.513,253.913,97.124,250.865,104.284z"/>
</g>
<g>
</g>
<g>
</g>
<g>
</g>
<g>
</g>
<g>
</g>
<g>
</g>
<g>
</g>
<g>
</g>
<g>
</g>
<g>
</g>
<g>
</g>
<g>
</g>
<g>
</g>
<g>
</g>
<g>
</g>
</svg>
